<?xml version="1.0" encoding="utf-8"?>
<!-- Generator: Adobe Illustrator 23.1.1, SVG Export Plug-In . SVG Version: 6.00 Build 0)  -->
<svg version="1.1" id="Ebene_1" xmlns="http://www.w3.org/2000/svg" xmlns:xlink="http://www.w3.org/1999/xlink" x="0px" y="0px"
	 viewBox="0 0 595.3 595.3" style="enable-background:new 0 0 595.3 595.3;" xml:space="preserve">
<style type="text/css">
	.st0{fill:#81938E;}
	.st1{fill-rule:evenodd;clip-rule:evenodd;fill:#67AF99;}
</style>
<g>
	<path class="st0" d="M28.8,535.6V433.4H58l31.4,74.8h0.9l-2-74.8H109v102.3H79.8l-31.4-74.9h-0.9l2,74.9H28.8z"/>
	<path class="st0" d="M167.7,537.6c-7.9,0-14.8-1.5-20.7-4.4c-6-2.9-10.6-7.7-13.9-14.3c-3.3-6.6-4.9-15.4-4.9-26.3
		c0-11.4,1.7-20.4,5.2-26.8c3.5-6.4,8.2-11,14.1-13.7c5.9-2.7,12.6-4.1,19.9-4.1c7.6,0,14,1.3,19.2,3.9c5.2,2.6,9.2,6.9,12,12.8
		c2.8,5.9,4.1,13.9,4.1,23.9v12.1h-62l10.2-3.2c0,3.5,0.1,6.5,0.4,9.1c0.3,2.6,0.8,4.7,1.5,6.4c0.7,1.7,1.6,3,2.6,4
		c1,0.9,2.2,1.5,3.7,2c1.5,0.5,3.5,0.7,5.9,0.7c2.6,0,5.5-0.3,8.7-0.8c3.2-0.5,6.3-1.2,9.4-2c3.1-0.8,5.7-1.5,7.9-2.1
		c2.2-0.6,3.7-1.1,4.5-1.4l5.5,16.3c-0.9,0.4-3,1.2-6.3,2.5c-3.3,1.3-7.4,2.5-12.1,3.6C178,537.1,173,537.6,167.7,537.6z
		 M150.9,487.6l-10-3.1l49-0.9l-10.2,3.2c0-4.7-0.2-8.5-0.6-11.5c-0.4-3-1.1-5.1-2-6.4c-0.7-0.8-1.7-1.5-3.1-2.2
		c-1.4-0.7-3.6-1-6.7-1c-3.7,0-6.4,0.4-8.3,1.1c-1.8,0.7-3.2,1.6-4.2,2.7C152.2,472.3,150.9,478.3,150.9,487.6z"/>
	<path class="st0" d="M229.6,535.6l-17-85.5h22.7l8.9,68.9h0.9l9.9-57.2h27.3l10,57.2h0.9l8.6-68.9h22.7l-16.9,85.5h-28.5l-10-57.2
		h-0.9l-10,57.2H229.6z"/>
	<path class="st0" d="M365.5,537.5c-4.5,0-8.8-0.4-12.9-1.3c-4.2-0.9-7.9-1.8-11.2-2.9c-3.3-1.1-6.9-2.5-10.8-4.2l5.5-17.7
		c4,1.6,7.6,2.9,10.8,3.9c3.2,1.1,6.6,2,10.1,2.8c3.5,0.8,6.8,1.2,9.8,1.2c1.6,0,3-0.1,4-0.4s1.8-0.6,2.4-1c0.8-0.6,1.4-1.4,1.8-2.5
		c0.4-1.1,0.7-2.2,0.7-3.5c0-2.4-0.8-4.3-2.3-5.6c-1.6-1.3-3.6-2.4-6.2-3.3c-2.6-0.9-5.5-1.7-8.7-2.6c-3.1-1-6.3-2-9.5-3.1
		c-3.2-1.1-6.1-2.6-8.8-4.5c-2.7-1.9-4.8-4.3-6.5-7.3c-1.7-3-2.5-6.9-2.5-11.6c0-7.7,2.6-13.8,7.7-18.5c5.1-4.7,13.4-7,24.7-7
		c4.3,0,8.4,0.3,12.4,0.9c4,0.6,7.5,1.3,10.6,2c3.1,0.8,5.5,1.5,7.3,2l-3.3,17.5c-3.7-0.9-7-1.6-9.9-2.2c-2.9-0.6-6-1.1-9.3-1.5
		c-3.3-0.4-6.4-0.7-9.3-0.7c-2.4,0-4.1,0.1-5.1,0.4s-1.7,0.6-2.2,1c-0.4,0.3-0.8,0.8-1.1,1.4c-0.3,0.6-0.5,1.5-0.5,2.5
		c0,2.1,0.8,3.9,2.3,5.2c1.5,1.3,3.6,2.4,6.2,3.3c2.6,0.9,5.4,1.7,8.4,2.6c3.1,0.9,6.3,1.8,9.5,2.8c3.2,1,6.2,2.4,8.9,4.2
		c2.7,1.8,4.9,4.2,6.5,7.3c1.7,3.1,2.5,7.1,2.5,12c0,8.5-2.8,15.4-8.3,20.7C383.8,534.9,375.8,537.5,365.5,537.5z"/>
	<path class="st0" d="M418,535.6V426.1H430v109.5H418z"/>
	<path class="st0" d="M459.6,436.6v-12.4h14.8v12.4H459.6z M460.9,535.6V451h12.1v84.7H460.9z"/>
	<path class="st0" d="M490.8,535.6l25.3-44.1l-25-40.6h13.7l18.5,33.9h0.7l18-33.9h13.7l-25,40.9l25.4,43.8H542l-18.5-36.5h-0.7
		l-18,36.5H490.8z"/>
</g>
<path id="Symbol" class="st1" d="M288.2,52.2c66.8,0,121,54.2,121,121c0,52.6-33.6,97.4-80.5,114.1l-12.3,27.9
	c26.9-5.3,51.1-18.1,70.4-36l-8.3-8.3l7.3-7.3l24,24l-7.3,7.3l-8.4-8.4c-22.4,21-51,35.3-82.8,40.1l-23.1,52.3l-23.1-52.3
	c-74.6-11.2-131.9-75.5-131.9-153.3c0-40.9,15.9-78.2,41.8-105.9l-8.4-8.4l7.3-7.3l24,24l-7.3,7.3l-8.3-8.3
	c-24.1,25.8-38.8,60.5-38.8,98.6c0,70.3,50.1,128.8,116.5,141.9l-12.3-27.9c-46.9-16.6-80.6-61.4-80.6-114.1
	C167.2,106.4,221.4,52.2,288.2,52.2L288.2,52.2z M288.2,83.6c-49.5,0-89.6,40.1-89.6,89.6c0,43.4,30.8,79.6,71.8,87.8l17.8,40.3
	l17.8-40.3c41-8.3,71.8-44.4,71.8-87.8C377.8,123.7,337.7,83.6,288.2,83.6L288.2,83.6z M228.8,396.2h118.8l-118.8-10.3V396.2z"/>
<g>
</g>
<g>
</g>
<g>
</g>
<g>
</g>
<g>
</g>
<g>
</g>
</svg>
